Coordinates
version=1
nRows=17
nColumns=24
inDegrees=yes

Units are S.I. units (second, meters, Newtons, ...)
Angles are in degrees.

endheader
time	pelvis_tilt	pelvis_list	pelvis_rotation	pelvis_tx	pelvis_ty	pelvis_tz	hip_flexion_r	hip_adduction_r	hip_rotation_r	knee_angle_r	ankle_angle_r	subtalar_angle_r	mtp_angle_r	hip_flexion_l	hip_adduction_l	hip_rotation_l	knee_angle_l	ankle_angle_l	subtalar_angle_l	mtp_angle_l	lumbar_extension	lumbar_bending	lumbar_rotation
      3.83000000	     -4.66787672	      4.00029773	     -3.33577078	     -1.82750813	     -0.02593918	     -0.35704581	    -13.60815141	     -2.17221305	     -6.01724481	    -11.60558217	      9.24695594	      3.18565728	     18.33899582	     26.84662152	      3.01637534	    -20.66412205	     -4.62148901	      0.48575046	      7.70297307	     18.01129155	     -0.18758127	     -5.45588836	      5.78973074
      3.83500000	     -4.63175123	      4.13713736	     -3.50209093	     -1.81981782	     -0.02653918	     -0.35734163	    -13.75152686	     -2.52627620	     -5.99692779	    -12.26276643	      8.75747227	      3.63200087	     19.11794502	     26.97490957	      3.15095129	    -20.14078364	     -5.73652986	      1.04324729	      7.08969888	     14.85378604	     -0.06395382	     -5.62585757	      5.94953809
      3.84000000	     -4.64773459	      4.16165527	     -3.53887113	     -1.81210428	     -0.02724469	     -0.35783792	    -13.83129513	     -2.73294406	     -6.04411546	    -12.98520733	      8.29441755	      4.10453352	     19.34751843	     27.12188252	      3.24758826	    -19.42499351	     -6.72260576	      0.95630442	      6.15847431	     14.03202577	      0.09455847	     -5.67381336	      5.97767943
      3.84500000	     -4.64361074	      4.21303108	     -3.56828585	     -1.80424929	     -0.02792113	     -0.35844782	    -13.89539093	     -2.99194391	     -6.26934274	    -13.76180061	      7.69979865	      4.64358561	     19.98124417	     27.19254145	      3.40345966	    -18.65414495	     -7.68122545	      1.01759896	      5.28802907	     12.23482960	      0.25141290	     -5.73958829	      6.02054853
      3.85000000	     -4.60285708	      4.29555041	     -3.79301419	     -1.79637611	     -0.02844946	     -0.35868859	    -13.93127612	     -3.30096176	     -6.08762764	    -14.61942489	      7.09462398	      4.98942651	     20.05634240	     27.16026708	      3.47339781	    -18.46298945	     -8.50625048	      0.76259421	      4.85312156	     12.01051927	      0.39430111	     -5.85145406	      6.31370672
      3.85500000	     -4.59150627	      4.45691486	     -3.74941323	     -1.78832899	     -0.02907011	     -0.35950311	    -13.95681511	     -3.69714423	     -6.49181967	    -15.44216560	      6.16663955	      5.50073743	     21.81701173	     27.11333046	      3.81001023	    -17.71493746	     -9.26171358	      0.60523374	      4.11268988	     10.10652927	      0.56363074	     -6.02717160	      6.28056178
      3.86000000	     -4.61099818	      4.57372222	     -3.82393446	     -1.78037293	     -0.02956656	     -0.36010272	    -13.85187681	     -4.04368990	     -6.55628174	    -16.44853081	      5.41502253	      5.93635989	     21.89156002	     27.03324436	      4.02948461	    -17.20621267	     -9.82268324	     -0.03200595	      3.48169694	     10.13919427	      0.76758090	     -6.15760342	      6.41667042
      3.86500000	     -4.64831861	      4.78148887	     -3.76393901	     -1.77232532	     -0.03002943	     -0.36096349	    -13.70101435	     -4.49664618	     -6.94419081	    -17.51841023	      4.57773092	      6.53361738	     22.20557687	     26.91946062	      4.42634906	    -16.56928860	    -10.22434300	     -0.91912852	      2.73334450	     10.48498400	      0.98957413	     -6.38108662	      6.39004878
      3.87000000	     -4.55818588	      5.01531453	     -3.70955625	     -1.76433626	     -0.03027550	     -0.36180259	    -13.68261238	     -5.00208620	     -7.42757964	    -18.45151918	      3.04648128	      6.87298809	     24.79519273	     26.61020291	      4.83680128	    -16.23325039	    -10.37048141	     -2.54062032	      2.00444535	     14.31014533	      1.06419314	     -6.63839773	      6.33965130
      3.87500000	     -4.57013192	      5.30390678	     -3.64783521	     -1.75638180	     -0.03048472	     -0.36269110	    -13.45401272	     -5.57237342	     -7.86595688	    -19.60814742	      1.76140324	      7.34831306	     25.79825650	     26.38982977	      5.30827695	    -15.72634552	    -10.48320619	     -3.96697448	      1.16290797	     16.81372588	      1.24654544	     -6.94650761	      6.29961461
      3.88000000	     -4.66772738	      5.64100057	     -3.57832169	     -1.74852570	     -0.03066414	     -0.36375326	    -13.03394246	     -6.23116915	     -8.35374494	    -20.94000351	      0.54116109	      8.01170705	     26.06686828	     26.27827787	      5.84796688	    -15.05144553	    -10.65756749	     -5.02387710	      0.18518271	     17.35452128	      1.50728577	     -7.27839821	      6.26019377
      3.88500000	     -4.64818587	      6.04789176	     -3.48057361	     -1.74065661	     -0.03065656	     -0.36464164	    -12.76086477	     -6.95489073	     -8.87657806	    -22.10040580	     -1.37934844	      8.24424574	     28.40611956	     26.00389604	      6.44161832	    -14.55261755	    -10.66426432	     -6.58243897	     -0.87984558	     20.64593233	      1.64251096	     -7.72322699	      6.19188068
      3.89000000	     -4.77518943	      6.45451576	     -3.41759270	     -1.73293564	     -0.03070905	     -0.36565974	    -12.18904592	     -7.71671509	     -9.30228509	    -23.54805209	     -2.92970047	      8.79529792	     28.64818174	     25.95955430	      7.03036296	    -13.84754931	    -10.91000641	     -7.45557423	     -2.08887927	     20.87230615	      1.91706996	     -8.13064209	      6.16374805
      3.89500000	     -4.86790628	      6.88137378	     -3.19868959	     -1.72516244	     -0.03072408	     -0.36676222	    -11.69835549	     -8.48263627	     -9.91595864	    -24.88130426	     -4.93005424	      9.11634071	     29.93569280	     25.89847775	      7.69948717	    -12.94775915	    -11.22654644	     -8.27895039	     -3.40550002	     21.33157007	      2.14061538	     -8.59024282	      5.95153522
      3.90000000	     -4.94857755	      7.30829225	     -3.23075511	     -1.71763768	     -0.03063084	     -0.36759625	    -11.08205549	     -9.29322552	    -10.10876653	    -26.23464480	     -7.29300409	      9.20445313	     32.13826569	     25.89346475	      8.25536260	    -12.33864831	    -11.69998750	     -8.76839820	     -4.77341794	     20.71281363	      2.34761122	     -9.02485919	      6.00889195
      3.90500000	     -5.08864805	      7.69448958	     -3.18122532	     -1.71012236	     -0.03063769	     -0.36854279	    -10.37080953	    -10.05156577	    -10.31110821	    -27.66891837	     -9.54188175	      9.37657826	     33.26781341	     26.01861119	      8.80691641	    -11.52791870	    -12.39574889	     -8.81734975	     -6.11720987	     18.80553565	      2.60291007	     -9.41097808	      5.97113937
      3.91000000	     -5.34092524	      8.05277793	     -3.06404644	     -1.70256113	     -0.03084222	     -0.36953009	     -9.51008675	    -10.76648439	    -10.49652640	    -29.16647153	    -11.71981784	      9.54961557	     33.78912984	     26.30334754	      9.35386739	    -10.62051896	    -13.19878902	     -8.80696046	     -7.60773768	     17.07276945	      2.97568797	     -9.77426908	      5.86028549
